<?xml version="1.0" encoding="iso-8859-1"?>
<!-- Generator: Adobe Illustrator 18.1.1, SVG Export Plug-In . SVG Version: 6.00 Build 0)  -->
<svg version="1.1" id="Capa_1" xmlns="http://www.w3.org/2000/svg" xmlns:xlink="http://www.w3.org/1999/xlink" x="0px" y="0px"
	 viewBox="0 0 483.764 483.764" style="enable-background:new 0 0 483.764 483.764;" xml:space="preserve">
<g>
	<g>
		<path style="fill:#010002;" d="M216.513,272.486c0.236,1.301,0.431,2.609,0.707,3.894c11.242,52.381,57.762,91.666,113.499,91.666
			c64.134,0,153.045-21.232,153.045-85.366c0-60.615-79.416-137.828-142.274-146.119v-25.589h126.79
			c6.413,0,11.616-5.202,11.616-11.616c0-6.413-5.202-11.616-11.616-11.616H341.481V71.897h-34.839v15.867H175.325
			c-6.413,0-11.616,5.202-11.616,11.616c0,6.413,5.202,11.616,11.616,11.616h131.309v27.345
			c-34.782,7.34-63.744,30.271-79.424,61.119c-0.683,1.341-1.325,2.699-1.959,4.064c-0.618,1.349-1.284,2.674-1.853,4.056
			l-185.51,16.664l0.512-3.934l0.512-3.934l5.991-46.219H28.93l-12.762,48.259l-1.057,3.983l-1.463,5.544L0,262.292l215.919,6.3
			C216.106,269.901,216.285,271.201,216.513,272.486z M290.084,232.452c1.008-4.324,2.268-8.624,3.869-12.859
			c11.754-31.051,38.529-57.607,68.191-49.926c23.524,6.096,76.433,37.668,98.193,101.989c13.185,38.985-57.046,23.8-98.193,23.8
			c-30.783,0-57.193-1.349-68.548-19.24c-1.447-2.276-2.577-4.91-3.512-7.763c-1.536-4.682-2.447-10.088-2.447-16.534
			C287.646,245.588,288.556,239.012,290.084,232.452z"/>
		<polygon style="fill:#010002;" points="16.273,319.509 33.888,319.509 45.17,271.372 45.829,268.559 20.687,267.803 
			20.443,270.648 		"/>
		<path style="fill:#010002;" d="M449.526,358.803c-19.029,36.197-87.772,30.36-121.807,29.856
			c-37.456-0.553-74.653-5.649-112.069-6.576c-14.989-0.366-14.948,22.858,0,23.231c49.097,1.203,97.64,7.836,146.891,6.332
			c36.034-1.097,88.008-4.934,107.037-41.122C476.554,357.283,456.501,345.545,449.526,358.803z"/>
	</g>
</g>
<g>
</g>
<g>
</g>
<g>
</g>
<g>
</g>
<g>
</g>
<g>
</g>
<g>
</g>
<g>
</g>
<g>
</g>
<g>
</g>
<g>
</g>
<g>
</g>
<g>
</g>
<g>
</g>
<g>
</g>
</svg>
